# xmcd
#
# Track frame offsets: 
#        150
#        11393
#        21592
#        29582
#        41478
#        53399
#        67105
#        80097
#        95039
#        104046
#        115602
#        133008
#        143666
#        159998
#        170383
#        182080
#        193655
#        204650
#        214964
#        227849
#        237648
#        247775
#        259123
#        269321
#        286149
#        296459
#        307318
#
# Disc length: 4254 seconds
#
# Revision: 0
# Processed by: cddbd v1.5.2PL0 Copyright (c) Steve Scherf et al.
# Submitted via: ExactAudioCopyFreeDBPlugin 1.0
#
DISCID=93109c1b
DTITLE=Various Artist - Ike Turner Studio Productions: New Orleans an
DTITLE=d Los Angeles 1963-1965
DYEAR=2012
DGENRE=R&B
TTITLE0=Jimmy Thomas - The Darkest Hour
TTITLE1=Stacy Johnson - Remove My Doubts
TTITLE2=Vernon Guy - They Ain't Lovin' You
TTITLE3=Bobby John - Too Late
TTITLE4=Bobby John and The Ikettes - Like I Do
TTITLE5=Jackie Brenston and The Ikettes - In Love
TTITLE6=Jackie Brenston - I'm Tore Up
TTITLE7=Venetta Fields - Through With You
TTITLE8=Vernon Guy - That's All Right
TTITLE9=Vernon Guy - You're So Fine
TTITLE10=Jimmy Thomas - I Smell Trouble
TTITLE11=Jimmy Thomas - Feel So Good
TTITLE12=Tina Turner - All In My Mind
TTITLE13=Ernest Lane and The Ikettes (with Tina Turner) - What Kind Of L
TTITLE13=ove
TTITLE14=Bobby John (with Jimmy Thomas, Stacy Johnson and Vernon Guy) - 
TTITLE14=I'm Comin' Home
TTITLE15=Bobby John - Dust My Broom
TTITLE16=Vernon Guy and The Ikettes - Your Precious Love
TTITLE17=Vernon Guy - Just To Hold My Hand
TTITLE18=Jimmy Thomas - Tin Pan Alley
TTITLE19=Jimmy Thomas - Mother-In-Law Blues
TTITLE20=Ike Turner and The Ikettes - Walking Down The Aisle
TTITLE21=Bobby John and The Ikettes - Think
TTITLE22=Tina Turner - Five Long Years
TTITLE23=Stacy Johnson - Consider Yourself
TTITLE24=Stacy Johnson - Don't Believe Him
TTITLE25=Vernon Guy with Ike and Dee Dee - You Can't Have Your Cake And 
TTITLE25=Eat It Too
TTITLE26=Vernon Guy - You've Got Me (Just Where You Want Me)
EXTD=
EXTT0=
EXTT1=
EXTT2=
EXTT3=
EXTT4=
EXTT5=
EXTT6=
EXTT7=
EXTT8=
EXTT9=
EXTT10=
EXTT11=
EXTT12=
EXTT13=
EXTT14=
EXTT15=
EXTT16=
EXTT17=
EXTT18=
EXTT19=
EXTT20=
EXTT21=
EXTT22=
EXTT23=
EXTT24=
EXTT25=
EXTT26=
PLAYORDER=
